<svg xmlns="http://www.w3.org/2000/svg" version="1.1" xmlns:xlink="http://www.w3.org/1999/xlink" xmlns:svgjs="http://svgjs.dev/svgjs" width="2000" height="2000" viewBox="0 0 2000 2000"><g transform="matrix(1,0,0,1,-0.28443113772425477,-0.28443113772459583)"><svg viewBox="0 0 334 334" data-background-color="#ffffff" preserveAspectRatio="xMidYMid meet" height="2000" width="2000" xmlns="http://www.w3.org/2000/svg" xmlns:xlink="http://www.w3.org/1999/xlink"><g id="tight-bounds" transform="matrix(1,0,0,1,0.04749999999998522,0.04750000000001364)"><svg viewBox="0 0 333.90454557049503 333.90454557049503" height="333.90454557049503" width="333.90454557049503"><g><svg></svg></g><g><svg viewBox="0 0 333.90454557049503 333.90454557049503" height="333.90454557049503" width="333.90454557049503"><g><path d="M0 166.952c0-92.205 74.747-166.952 166.952-166.952 92.205 0 166.952 74.747 166.953 166.952 0 92.205-74.747 166.952-166.953 166.953-92.205 0-166.952-74.747-166.952-166.953zM166.952 316.63c82.665 0 149.677-67.013 149.678-149.678 0-82.665-67.013-149.677-149.678-149.677-82.665 0-149.677 67.013-149.677 149.677 0 82.665 67.013 149.677 149.677 149.678z" data-fill-palette-color="tertiary" fill="#a84aaf" stroke="transparent"></path><ellipse rx="160.27418187383762" ry="160.27418187383762" cx="166.95227278524752" cy="166.95227278524752" fill="#a84aaf" stroke="transparent" stroke-width="0" fill-opacity="1" data-fill-palette-color="tertiary"></ellipse></g><g transform="matrix(1,0,0,1,67.00092682228647,71.17305217166896)"><svg viewBox="0 0 199.90269192592208 191.55844122715712" height="191.55844122715712" width="199.90269192592208"><g><svg viewBox="0 0 199.9026919259221 191.55844122715715" height="191.55844122715712" width="199.90269192592208"><g><svg viewBox="0 0 199.9026919259221 191.55844122715715" height="191.55844122715715" width="199.9026919259221"><g id="textblocktransform"><svg viewBox="0 0 199.9026919259221 191.55844122715715" height="191.55844122715715" width="199.9026919259221" id="textblock"><g><svg viewBox="0 0 199.9026919259221 191.55844122715715" height="191.55844122715715" width="199.9026919259221"><g transform="matrix(1,0,0,1,0,0)"><svg width="199.9026919259221" viewBox="1.1898764790160001 -37.421002591639 39.632232895984 37.981802564967005" height="191.55844122715715" data-palette-color="#ffffff"><path d="M8.57-0.32Q8.35 0.15 8.03 0.42 7.71 0.68 7.13 0.46 6.54 0.24 6.32-0.15 6.1-0.54 5.98-1 5.86-1.46 5.74-1.9 5.62-2.34 5.27-2.64L5.27-2.64Q4.54-3.17 4.35-4.1L4.35-4.1Q4.05-5.86 4.03-8.3 4-10.74 3.96-11.67 3.91-12.6 3.78-13.04 3.66-13.48 3.49-13.57 3.32-13.67 3.03-13.82L3.03-13.82Q2.49-14.06 2.25-15.55 2-17.04 2.1-19.04L2.1-19.04Q2.29-22.8 1.66-25.49L1.66-25.49Q1.07-28.03 1.22-30.3 1.37-32.57 1.66-33.5L1.66-33.5Q2.25-35.64 3.78-35.35 5.32-35.06 6.23-35.11 7.13-35.16 7.71-35.35 8.3-35.55 8.79-35.74 9.28-35.94 10.08-35.91 10.89-35.89 11.55-35.67 12.21-35.45 12.89-35.25L12.89-35.25Q14.7-34.67 15.72-34.72 16.75-34.77 17.33-34.84 17.92-34.91 18.36-34.91L18.36-34.91Q19.29-34.91 19.9-34.42 20.51-33.94 20.61-33.35 20.7-32.76 20.65-32.13L20.65-32.13Q20.56-30.91 20.21-30.1 19.87-29.3 19.85-28.76 19.82-28.22 19.87-27.71 19.92-27.2 19.97-26.71 20.02-26.22 19.9-25.66 19.78-25.1 19.29-24.54 18.8-23.97 18.16-23.54L18.16-23.54Q16.75-22.66 15.87-22.9 14.99-23.14 14.58-23.32 14.16-23.49 13.77-23.58L13.77-23.58Q12.94-23.83 12.16-23.63 11.38-23.44 11.08-22.9 10.79-22.36 10.86-21.78 10.94-21.19 11.43-20.73 11.91-20.26 12.77-20.21 13.62-20.17 14.16-20.21 14.7-20.26 15.04-20.26L15.04-20.26Q15.77-20.26 16.36-19.63L16.36-19.63Q17.24-18.6 16.21-16.55L16.21-16.55Q15.97-16.02 15.8-15.14 15.63-14.26 15.38-13.4 15.14-12.55 14.77-11.99 14.4-11.43 13.92-11.52 13.43-11.62 13.26-11.82 13.09-12.01 12.89-12.16L12.89-12.16Q12.5-12.55 12.01-12.4L12.01-12.4Q11.23-12.21 11.11-11.01 10.99-9.81 11.04-8.64 11.08-7.47 11.16-6.64 11.23-5.81 11.13-4.98L11.13-4.98Q10.99-3.08 9.67-2.1L9.67-2.1Q9.23-1.81 9.01-1.29 8.79-0.78 8.57-0.32ZM31.05-20.9L31.05-19.68Q31.05-18.31 32.47-18.31L32.47-18.31Q32.81-18.31 33.1-18.38 33.4-18.46 34.1-18.6 34.81-18.75 35.42-18.33 36.03-17.92 36.35-17.72 36.67-17.53 36.86-17.29L36.86-17.29Q37.2-16.85 37.18-15.65 37.16-14.45 36.67-13.45 36.18-12.45 34.47-12.21L34.47-12.21Q32.76-11.96 31.91-11.47 31.05-10.99 30.88-9.86 30.71-8.74 30.47-8.3 30.22-7.86 30.17-7.32L30.17-7.32Q30.12-6.79 29.9-6.18 29.68-5.57 29.76-5.03 29.83-4.49 29.81-3.59 29.78-2.69 29.54-1.81L29.54-1.81Q28.95 0.34 27.44 0.34L27.44 0.34Q26.85 0.34 26.54-0.27 26.22-0.88 26-1.71 25.78-2.54 25.56-3.47 25.34-4.39 24.75-5.4 24.17-6.4 24.09-7.67 24.02-8.94 24.02-10.16L24.02-10.16 24.02-12.5Q24.02-16.8 23.04-17.87L23.04-17.87Q22.41-18.51 22.51-20.31L22.51-20.31 22.51-21.68Q22.51-22.41 22.75-22.85L22.75-22.85Q23.34-24.12 23.07-26.42 22.8-28.71 22.56-29.96 22.31-31.2 22.53-32.32 22.75-33.45 22.82-34.08 22.9-34.72 23.31-35.3 23.73-35.89 24.05-35.96 24.36-36.04 24.8-35.99L24.8-35.99Q25.39-35.94 25.83-36.38L25.83-36.38Q27.44-37.99 28.85-37.11L28.85-37.11Q29.44-36.72 30.05-36.28 30.66-35.84 31.39-35.5 32.13-35.16 33.08-35.25 34.03-35.35 34.96-35.55 35.89-35.74 36.81-35.64L36.81-35.64Q39.16-35.5 40.23-33.5L40.23-33.5Q40.96-32.13 40.79-30.64 40.62-29.15 40.48-28.22 40.33-27.29 40.33-26.68 40.33-26.07 40.28-25.93 40.23-25.78 40.18-25.68L40.18-25.68Q39.99-25.15 39.94-24.22 39.89-23.29 39.74-22.85L39.74-22.85Q39.3-21.73 38.03-21.73L38.03-21.73Q37.2-21.73 36.62-22.02L36.62-22.02Q35.45-22.61 34.96-22.66L34.96-22.66Q34.27-22.75 34.03-23.44L34.03-23.44Q33.93-23.68 33.84-23.95 33.74-24.22 33.54-24.44 33.35-24.66 33.13-25.02 32.91-25.39 32.22-25.29L32.22-25.29Q30.86-25.1 30.95-23.73L30.95-23.73 31.05-20.9Z" opacity="1" transform="matrix(1,0,0,1,0,0)" fill="#ffffff" class="wordmark-text-0" data-fill-palette-color="quaternary" id="text-0"></path></svg></g></svg></g></svg></g></svg></g><g></g></svg></g></svg></g></svg></g><defs></defs></svg><rect width="333.90454557049503" height="333.90454557049503" fill="none" stroke="none" visibility="hidden"></rect></g></svg></g></svg>