<svg xmlns="http://www.w3.org/2000/svg" version="1.1" xmlns:xlink="http://www.w3.org/1999/xlink" xmlns:svgjs="http://svgjs.dev/svgjs" width="2000" height="303" viewBox="0 0 2000 303"><g transform="matrix(1,0,0,1,-1.2121212121212466,-2.1011271255060535)"><svg viewBox="0 0 396 60" data-background-color="#ffffff" preserveAspectRatio="xMidYMid meet" height="303" width="2000" xmlns="http://www.w3.org/2000/svg" xmlns:xlink="http://www.w3.org/1999/xlink"><g id="tight-bounds" transform="matrix(1,0,0,1,0.2400000000000091,0.41606477732793223)"><svg viewBox="0 0 395.52 59.167870445344136" height="59.167870445344136" width="395.52"><g><svg viewBox="0 0 395.52 59.167870445344136" height="59.167870445344136" width="395.52"><g><svg viewBox="0 0 395.52 59.167870445344136" height="59.167870445344136" width="395.52"><g id="textblocktransform"><svg viewBox="0 0 395.52 59.167870445344136" height="59.167870445344136" width="395.52" id="textblock"><g><svg viewBox="0 0 395.52 59.167870445344136" height="59.167870445344136" width="395.52"><g transform="matrix(1,0,0,1,0,0)"><svg width="395.52" viewBox="1.45 -36.5 247.47 36.95" height="59.167870445344136" data-palette-color="#414141"><path d="M10.8-16.35L10.8-16.35Q10.8-11.35 10.9-8.53 11-5.7 11.1-4.58 11.2-3.45 11.2-3.45L11.2-3.45Q11.3-2.5 12.25-2.13 13.2-1.75 15.45-1.3L15.45-1.3 15.3 0.15Q13.75 0.05 12.15 0.03 10.55 0 8.65 0L8.65 0Q4.75 0 1.6 0.15L1.6 0.15 1.45-1.3Q3.7-1.75 4.75-2.13 5.8-2.5 5.9-3.45L5.9-3.45Q5.9-3.45 6-4.63 6.1-5.8 6.2-8.78 6.3-11.75 6.3-17.1L6.3-17.1Q6.3-22.5 6.2-25.48 6.1-28.45 6-29.63 5.9-30.8 5.9-30.8L5.9-30.8Q5.8-31.75 4.93-32.13 4.05-32.5 1.8-32.95L1.8-32.95 1.95-34.4Q3-34.35 3.65-34.33 4.3-34.3 5-34.27 5.7-34.25 6.95-34.25L6.95-34.25Q10.2-34.25 13.83-34.25 17.45-34.25 20.68-34.33 23.9-34.4 25.95-34.55L25.95-34.55 25.95-33.8Q25.95-32.75 26.03-31.35 26.1-29.95 26.25-28.63 26.4-27.3 26.55-26.45L26.55-26.45 25.2-25.85Q24.55-27.95 23.83-29.23 23.1-30.5 22.03-31.13 20.95-31.75 19.33-31.95 17.7-32.15 15.3-32.15L15.3-32.15Q13.5-32.15 12.43-32.02 11.35-31.9 11.25-31.05L11.25-31.05Q11.25-31.05 11.15-29.88 11.05-28.7 10.95-25.93 10.85-23.15 10.8-18.35L10.8-18.35Q12.4-18.35 14.1-18.4 15.8-18.45 17.2-18.53 18.6-18.6 19.2-18.75L19.2-18.75Q20.15-19 20.5-19.83 20.85-20.65 21.35-23.15L21.35-23.15 23.1-22.95Q22.9-21.6 22.8-20.2 22.7-18.8 22.7-17.4L22.7-17.4Q22.7-16 22.8-14.6 22.9-13.2 23.1-11.8L23.1-11.8 21.35-11.55Q20.85-14.05 20.5-14.9 20.15-15.75 19.2-15.95L19.2-15.95Q18.6-16.1 17.2-16.18 15.8-16.25 14.1-16.3 12.4-16.35 10.8-16.35ZM47.55-2.6L47.55-2.6 48.05-1.3Q46.15 0.45 43.9 0.45L43.9 0.45Q42.65 0.45 41.65-0.33 40.65-1.1 40.4-2.8L40.4-2.8Q38.55-1.4 36.72-0.48 34.9 0.45 32.8 0.45L32.8 0.45Q30.8 0.45 29.22-0.8 27.65-2.05 27.65-4.75L27.65-4.75Q27.65-6.55 28.8-8.28 29.95-10 32.72-11.23 35.5-12.45 40.25-12.75L40.25-12.75 40.25-17.4Q40.25-18.85 39.17-19.58 38.1-20.3 36.6-20.3L36.6-20.3Q34.4-20.3 33.35-19.25 32.3-18.2 32.3-16.65L32.3-16.65Q32.3-16.05 32.45-15.3L32.45-15.3 31.35-14.8Q30.3-15.35 29.45-16.32 28.6-17.3 28.6-17.7L28.6-17.7Q28.6-18.05 29.22-18.9 29.85-19.75 31.1-20.7 32.35-21.65 34.15-22.33 35.95-23 38.3-23L38.3-23Q39.85-23 41.12-22.55 42.4-22.1 43.15-20.95 43.9-19.8 43.9-17.65L43.9-17.65Q43.9-17.15 43.92-15.85 43.95-14.55 44-12.85 44.05-11.15 44.07-9.43 44.1-7.7 44.15-6.4 44.2-5.1 44.2-4.6L44.2-4.6Q44.25-3.25 44.77-2.73 45.3-2.2 46-2.2L46-2.2Q46.3-2.2 46.7-2.3 47.1-2.4 47.55-2.6ZM40.25-4.7L40.25-4.7 40.25-10.5Q35.85-10.4 33.85-8.85 31.85-7.3 31.85-5.55L31.85-5.55Q31.85-4.05 32.75-3.3 33.65-2.55 35.1-2.55L35.1-2.55Q36.2-2.55 37.52-3.08 38.85-3.6 40.25-4.7ZM58.2-23L58.2-23Q61.3-23 63.02-22.38 64.75-21.75 64.75-21.75L64.75-21.75Q64.75-20.65 64.8-19.25 64.84-17.85 65.05-16.8L65.05-16.8 63.75-16.35Q63.09-19 61.9-19.95 60.7-20.9 58.8-20.9L58.8-20.9Q57.09-20.9 56.07-19.95 55.05-19 55.05-17.7L55.05-17.7Q55.05-16.8 55.59-15.83 56.15-14.85 57.65-14L57.65-14 62.75-11.2Q64.3-10.35 65.17-9.05 66.05-7.75 66.05-5.85L66.05-5.85Q66.05-4.35 65.25-2.9 64.45-1.45 62.67-0.5 60.9 0.45 58.05 0.45L58.05 0.45Q56.55 0.45 54.62 0.15 52.7-0.15 50.55-0.8L50.55-0.8Q50.7-1.55 50.82-2.63 50.95-3.7 51.05-4.78 51.15-5.85 51.15-6.55L51.15-6.55 52.45-7Q52.9-5.25 53.34-3.98 53.8-2.7 54.77-2.05 55.75-1.4 57.75-1.4L57.75-1.4Q59.9-1.4 61-2.45 62.09-3.5 62.09-4.8L62.09-4.8Q62.09-5.75 61.52-6.65 60.95-7.55 59.75-8.2L59.75-8.2 54.34-11.2Q52.65-12.1 51.84-13.55 51.05-15 51.05-16.55L51.05-16.55Q51.05-18.15 51.87-19.63 52.7-21.1 54.3-22.05 55.9-23 58.2-23ZM75.94-18.1L75.94-18.1Q75.94-13.15 76.02-10.08 76.09-7 76.19-5.35 76.29-3.7 76.39-3.08 76.49-2.45 76.49-2.4L76.49-2.4Q76.54-2.15 77.12-1.9 77.69-1.65 78.44-1.5 79.19-1.35 79.69-1.3L79.69-1.3 79.54 0.15Q78.34 0.05 76.89 0.03 75.44 0 74.14 0L74.14 0Q72.89 0 71.32 0.03 69.74 0.05 68.54 0.15L68.54 0.15 68.69-1.3Q69.24-1.35 69.94-1.5 70.64-1.65 71.22-1.9 71.79-2.15 71.84-2.4L71.84-2.4Q71.84-2.4 71.89-3.13 71.94-3.85 72.02-5.63 72.09-7.4 72.14-10.53 72.19-13.65 72.19-18.45L72.19-18.45Q72.19-23.3 72.14-26.25 72.09-29.2 71.99-30.75 71.89-32.3 71.84-32.83 71.79-33.35 71.79-33.35L71.79-33.35 68.59-34.3 68.49-35.6Q69.39-35.6 70.62-35.73 71.84-35.85 73.04-36.08 74.24-36.3 75.09-36.5L75.09-36.5 76.04-36.05Q76.04-36.05 75.99-31.88 75.94-27.7 75.94-20.1L75.94-20.1Q76.99-20.7 78.69-21.38 80.39-22.05 82.32-22.53 84.24-23 85.94-23L85.94-23Q88.09-23 89.57-21.98 91.04-20.95 91.04-18.25L91.04-18.25 91.04-11.45Q91.04-7.8 91.17-5.85 91.29-3.9 91.42-3.15 91.54-2.4 91.54-2.4L91.54-2.4Q91.59-2.15 92.17-1.9 92.74-1.65 93.49-1.5 94.24-1.35 94.74-1.3L94.74-1.3 94.59 0.15Q93.39 0.05 91.94 0.03 90.49 0 89.19 0L89.19 0Q87.94 0 86.37 0.03 84.79 0.05 83.59 0.15L83.59 0.15 83.74-1.3Q84.29-1.35 84.99-1.5 85.69-1.65 86.27-1.9 86.84-2.15 86.89-2.4L86.89-2.4Q86.89-2.4 86.99-3.15 87.09-3.9 87.19-5.85 87.29-7.8 87.29-11.45L87.29-11.45 87.29-16.7Q87.29-18.55 86.22-19.23 85.14-19.9 83.54-19.9L83.54-19.9Q82.29-19.9 80.82-19.58 79.34-19.25 78.04-18.85 76.74-18.45 75.94-18.1ZM103.59-22.95L103.59-22.95 104.54-22.5Q104.54-21.85 104.52-20.5 104.49-19.15 104.49-17.53 104.49-15.9 104.47-14.28 104.44-12.65 104.44-11.45L104.44-11.45Q104.44-7.8 104.57-5.85 104.69-3.9 104.82-3.15 104.94-2.4 104.94-2.4L104.94-2.4Q104.99-2.15 105.67-1.9 106.34-1.65 107.17-1.5 107.99-1.35 108.49-1.3L108.49-1.3 108.34 0.15Q107.14 0.05 105.52 0.03 103.89 0 102.59 0L102.59 0Q101.34 0 99.59 0.03 97.84 0.05 96.64 0.15L96.64 0.15 96.79-1.3Q97.34-1.35 98.14-1.5 98.94-1.65 99.59-1.9 100.24-2.15 100.29-2.4L100.29-2.4Q100.29-2.4 100.39-3.15 100.49-3.9 100.59-5.85 100.69-7.8 100.69-11.45L100.69-11.45Q100.69-15.1 100.59-16.88 100.49-18.65 100.39-19.23 100.29-19.8 100.29-19.8L100.29-19.8 97.09-20.75 96.99-22.05Q97.89-22.05 99.12-22.18 100.34-22.3 101.54-22.53 102.74-22.75 103.59-22.95ZM102.44-28.15L102.44-28.15Q101.34-28.15 100.59-28.93 99.84-29.7 99.84-30.85L99.84-30.85Q99.84-31.95 100.59-32.7 101.34-33.45 102.44-33.45L102.44-33.45Q103.54-33.45 104.29-32.7 105.04-31.95 105.04-30.85L105.04-30.85Q105.04-29.7 104.29-28.93 103.54-28.15 102.44-28.15ZM133.79-12.15L133.79-12.15Q133.79-9.75 133.11-7.5 132.44-5.25 131.04-3.45 129.64-1.65 127.36-0.6 125.09 0.45 121.84 0.45L121.84 0.45Q116.24 0.45 113.74-2.53 111.24-5.5 111.24-10.3L111.24-10.3Q111.24-12.7 111.91-14.95 112.59-17.2 113.99-19.03 115.39-20.85 117.69-21.93 119.99-23 123.19-23L123.19-23Q126.94-23 129.26-21.63 131.59-20.25 132.69-17.8 133.79-15.35 133.79-12.15ZM129.49-10.3L129.49-10.3Q129.49-12.85 128.91-15.2 128.34-17.55 126.86-19.05 125.39-20.55 122.64-20.55L122.64-20.55Q120.44-20.55 119.04-19.53 117.64-18.5 116.89-17 116.14-15.5 115.84-14 115.54-12.5 115.54-11.5L115.54-11.5Q115.54-9.05 116.19-6.88 116.84-4.7 118.34-3.33 119.84-1.95 122.39-1.95L122.39-1.95Q124.39-1.95 125.76-2.83 127.14-3.7 127.96-5.05 128.79-6.4 129.14-7.83 129.49-9.25 129.49-10.3ZM143.49-22.95L143.49-22.95 144.44-22.5 144.44-20.1Q145.49-20.7 147.09-21.38 148.69-22.05 150.54-22.53 152.39-23 154.09-23L154.09-23Q156.24-23 157.71-21.98 159.19-20.95 159.19-18.25L159.19-18.25 159.19-11.45Q159.19-7.8 159.31-5.85 159.44-3.9 159.56-3.15 159.69-2.4 159.69-2.4L159.69-2.4Q159.74-2.15 160.31-1.9 160.89-1.65 161.64-1.5 162.39-1.35 162.89-1.3L162.89-1.3 162.74 0.15Q161.54 0.05 160.09 0.03 158.64 0 157.34 0L157.34 0Q156.09 0 154.51 0.03 152.94 0.05 151.74 0.15L151.74 0.15 151.89-1.3Q152.44-1.35 153.14-1.5 153.84-1.65 154.41-1.9 154.99-2.15 155.04-2.4L155.04-2.4Q155.04-2.4 155.14-3.15 155.24-3.9 155.34-5.85 155.44-7.8 155.44-11.45L155.44-11.45 155.44-16.7Q155.44-18.55 154.36-19.23 153.29-19.9 151.69-19.9L151.69-19.9Q150.44-19.9 149.06-19.58 147.69-19.25 146.44-18.85 145.19-18.45 144.39-18.1L144.39-18.1Q144.39-16.85 144.36-15.25 144.34-13.65 144.34-11.45L144.34-11.45Q144.34-7.8 144.46-5.85 144.59-3.9 144.71-3.15 144.84-2.4 144.84-2.4L144.84-2.4Q144.89-2.15 145.46-1.9 146.04-1.65 146.79-1.5 147.54-1.35 148.04-1.3L148.04-1.3 147.89 0.15Q146.69 0.05 145.24 0.03 143.79 0 142.49 0L142.49 0Q141.24 0 139.66 0.03 138.09 0.05 136.89 0.15L136.89 0.15 137.04-1.3Q137.59-1.35 138.29-1.5 138.99-1.65 139.56-1.9 140.14-2.15 140.19-2.4L140.19-2.4Q140.19-2.4 140.29-3.15 140.39-3.9 140.49-5.85 140.59-7.8 140.59-11.45L140.59-11.45Q140.59-15.1 140.49-16.88 140.39-18.65 140.29-19.23 140.19-19.8 140.19-19.8L140.19-19.8 136.99-20.75 136.89-22.05Q137.79-22.05 139.01-22.18 140.24-22.3 141.44-22.53 142.64-22.75 143.49-22.95ZM185.58-2.4L185.58-2.4Q185.63-2.15 186.36-1.9 187.08-1.65 187.98-1.5 188.88-1.35 189.38-1.3L189.38-1.3 189.23 0.15Q188.03 0.05 186.16 0.03 184.28 0 182.98 0L182.98 0Q181.73 0 180.16 0.03 178.58 0.05 177.38 0.15L177.38 0.15 177.53-1.3Q178.08-1.35 178.86-1.5 179.63-1.65 180.26-1.9 180.88-2.15 180.93-2.4L180.93-2.4Q180.93-2.4 181.01-3.2 181.08-4 181.16-5.98 181.23-7.95 181.28-11.45 181.33-14.95 181.33-20.3L181.33-20.3Q179.68-20.25 178.78-20.25 177.88-20.25 177.88-20.25L177.88-20.25 177.73-20.8 178.88-22.75Q178.88-22.75 179.46-22.7 180.03-22.65 181.28-22.55L181.28-22.55Q181.28-26 182.38-28.45 183.48-30.9 185.13-32.48 186.78-34.05 188.51-34.93 190.23-35.8 191.58-36.15 192.93-36.5 193.33-36.5L193.33-36.5Q193.58-36.5 194.11-35.98 194.63-35.45 195.16-34.65 195.68-33.85 195.88-33L195.88-33 195.13-32.05Q194.48-32.35 193.31-32.68 192.13-33 190.83-33L190.83-33Q189.43-33 188.11-32.23 186.78-31.45 185.93-29.23 185.08-27 185.08-22.6L185.08-22.6Q188.18-22.6 189.88-22.63 191.58-22.65 191.58-22.65L191.58-22.65 191.83-22.05 190.28-20.1Q190.28-20.1 189.01-20.18 187.73-20.25 185.08-20.3L185.08-20.3Q185.08-15.05 185.16-11.63 185.23-8.2 185.31-6.23 185.38-4.25 185.48-3.4 185.58-2.55 185.58-2.4ZM200.08-22.95L200.08-22.95 201.03-22.5Q201.03-21.85 201-20.5 200.98-19.15 200.98-17.53 200.98-15.9 200.95-14.28 200.93-12.65 200.93-11.45L200.93-11.45Q200.93-7.8 201.05-5.85 201.18-3.9 201.3-3.15 201.43-2.4 201.43-2.4L201.43-2.4Q201.48-2.15 202.15-1.9 202.83-1.65 203.65-1.5 204.48-1.35 204.98-1.3L204.98-1.3 204.83 0.15Q203.63 0.05 202 0.03 200.38 0 199.08 0L199.08 0Q197.83 0 196.08 0.03 194.33 0.05 193.13 0.15L193.13 0.15 193.28-1.3Q193.83-1.35 194.63-1.5 195.43-1.65 196.08-1.9 196.73-2.15 196.78-2.4L196.78-2.4Q196.78-2.4 196.88-3.15 196.98-3.9 197.08-5.85 197.18-7.8 197.18-11.45L197.18-11.45Q197.18-15.1 197.08-16.88 196.98-18.65 196.88-19.23 196.78-19.8 196.78-19.8L196.78-19.8 193.58-20.75 193.48-22.05Q194.38-22.05 195.6-22.18 196.83-22.3 198.03-22.53 199.23-22.75 200.08-22.95ZM198.93-28.15L198.93-28.15Q197.83-28.15 197.08-28.93 196.33-29.7 196.33-30.85L196.33-30.85Q196.33-31.95 197.08-32.7 197.83-33.45 198.93-33.45L198.93-33.45Q200.03-33.45 200.78-32.7 201.53-31.95 201.53-30.85L201.53-30.85Q201.53-29.7 200.78-28.93 200.03-28.15 198.93-28.15ZM225.68 0L225.68 0 208.08 0 207.08-1.5 221.43-20.5Q217.63-20.5 215.45-20.43 213.28-20.35 212.15-19.95 211.03-19.55 210.48-18.68 209.93-17.8 209.43-16.2L209.43-16.2 208.13-16.65Q208.28-17.6 208.43-19.23 208.58-20.85 208.58-22.1L208.58-22.1 208.58-22.75Q209.73-22.65 211.85-22.6 213.98-22.55 216.48-22.53 218.98-22.5 221.43-22.5 223.88-22.5 225.68-22.5L225.68-22.5 226.43-21.1 212.28-2.25Q216.73-2.25 219.33-2.55 221.93-2.85 223.33-3.95 224.73-5.05 225.43-7.35L225.43-7.35 226.73-6.9Q226.48-6.15 226.25-4.8 226.03-3.45 225.88-2.13 225.73-0.8 225.68 0ZM247.87 0L247.87 0 230.27 0 229.27-1.5 243.62-20.5Q239.82-20.5 237.65-20.43 235.47-20.35 234.35-19.95 233.22-19.55 232.67-18.68 232.12-17.8 231.62-16.2L231.62-16.2 230.32-16.65Q230.47-17.6 230.62-19.23 230.77-20.85 230.77-22.1L230.77-22.1 230.77-22.75Q231.92-22.65 234.05-22.6 236.17-22.55 238.67-22.53 241.17-22.5 243.62-22.5 246.07-22.5 247.87-22.5L247.87-22.5 248.62-21.1 234.47-2.25Q238.92-2.25 241.52-2.55 244.12-2.85 245.52-3.95 246.92-5.05 247.62-7.35L247.62-7.35 248.92-6.9Q248.67-6.15 248.45-4.8 248.22-3.45 248.07-2.13 247.92-0.8 247.87 0Z" opacity="1" transform="matrix(1,0,0,1,0,0)" fill="#414141" class="wordmark-text-0" data-fill-palette-color="primary" id="text-0"></path></svg></g></svg></g></svg></g></svg></g><g></g></svg></g><defs></defs></svg><rect width="395.52" height="59.167870445344136" fill="none" stroke="none" visibility="hidden"></rect></g></svg></g></svg>