<svg xmlns="http://www.w3.org/2000/svg" version="1.1" xmlns:xlink="http://www.w3.org/1999/xlink" xmlns:svgjs="http://svgjs.dev/svgjs" width="1500" height="325" viewBox="0 0 1500 325"><g transform="matrix(1,0,0,1,-0.9090909090909918,-0.9725496442603117)"><svg viewBox="0 0 396 86" data-background-color="#ffffff" preserveAspectRatio="xMidYMid meet" height="325" width="1500" xmlns="http://www.w3.org/2000/svg" xmlns:xlink="http://www.w3.org/1999/xlink"><g id="tight-bounds" transform="matrix(1,0,0,1,0.2400000000000091,0.25735159817349995)"><svg viewBox="0 0 395.52 85.48529680365297" height="85.48529680365297" width="395.52"><g><svg viewBox="0 0 395.52 85.48529680365297" height="85.48529680365297" width="395.52"><g><svg viewBox="0 0 395.52 85.48529680365297" height="85.48529680365297" width="395.52"><g id="textblocktransform"><svg viewBox="0 0 395.52 85.48529680365297" height="85.48529680365297" width="395.52" id="textblock"><g><svg viewBox="0 0 395.52 85.48529680365297" height="85.48529680365297" width="395.52"><g transform="matrix(1,0,0,1,0,0)"><svg width="395.52" viewBox="3.52 -44.58 209.2 45.07" height="85.48529680365297" data-palette-color="#414141"><path d="M8.54 0L3.52 0 3.52-42.97 16.46-42.97 16.46-38.75 8.54-38.75 8.54-25.17 15.97-25.17 15.97-20.9 8.54-20.9 8.54 0ZM26.54 0.32L26.54 0.32Q23.22 0.32 21.75-2.26 20.29-4.83 20.26-9.4L20.26-9.4 20.26-12.96Q20.26-15.38 21.09-16.98 21.92-18.58 23.43-19.65 24.95-20.73 27-21.59 29.05-22.46 31.49-23.44L31.49-23.44 31.49-26.27Q31.49-28.61 31.35-30.07 31.2-31.52 30.6-32.2 30-32.89 28.68-32.89L28.68-32.89Q27.39-32.89 26.74-32.2 26.1-31.52 25.9-30.05 25.71-28.59 25.71-26.25L25.71-26.25 25.71-24.98 20.73-24.98 20.73-26.03Q20.73-28.37 21.02-30.38 21.31-32.4 22.14-33.89 22.97-35.38 24.57-36.22 26.17-37.06 28.78-37.06L28.78-37.06Q31.27-37.06 32.8-36.27 34.32-35.47 35.14-33.94 35.96-32.4 36.25-30.14 36.55-27.88 36.55-24.93L36.55-24.93 36.55 0 31.52 0 31.52-3.17Q31.3-2.44 30.66-1.62 30.03-0.81 29-0.24 27.98 0.32 26.54 0.32ZM27.95-3.74L27.95-3.74Q29.27-3.74 30.22-4.58 31.17-5.42 31.49-6.25L31.49-6.25 31.49-20.19Q29.61-19.36 28.4-18.69 27.19-18.02 26.52-17.29 25.85-16.55 25.58-15.53 25.31-14.5 25.31-12.94L25.31-12.94 25.31-9.55Q25.31-6.45 25.85-5.09 26.39-3.74 27.95-3.74ZM49.92 0.49L49.92 0.49Q46.02 0.49 43.99-1.97 41.96-4.42 41.96-10.11L41.96-10.11 41.96-12.87 46.82-12.87 46.82-10.13Q46.82-7.06 47.49-5.42 48.16-3.78 49.7-3.78L49.7-3.78Q51.24-3.78 51.96-4.79 52.68-5.79 52.68-8.37L52.68-8.37Q52.68-9.67 52.29-10.95 51.9-12.23 51.09-13.49 50.29-14.75 49.02-15.94L49.02-15.94 46.43-18.41Q44.11-20.63 42.89-23.13 41.67-25.63 41.67-28.44L41.67-28.44Q41.67-32.89 43.77-34.97 45.87-37.06 49.56-37.06L49.56-37.06Q52.02-37.06 53.71-35.99 55.39-34.91 56.25-32.42 57.1-29.93 57.1-25.63L57.1-25.63 57.1-23.88 52.34-23.88 52.34-26.42Q52.34-29.49 51.74-31.13 51.14-32.76 49.6-32.76L49.6-32.76Q48.12-32.76 47.37-31.9 46.63-31.03 46.55-28.74L46.55-28.74Q46.53-27.56 46.86-26.37 47.19-25.17 47.94-24 48.7-22.83 49.9-21.7L49.9-21.7 52.53-19.24Q55.1-16.87 56.4-14.15 57.71-11.43 57.71-8.4L57.71-8.4Q57.71-4.25 55.82-1.88 53.93 0.49 49.92 0.49ZM67.69 0L62.69 0 62.69-43.43 67.69-43.43 67.69-32.74Q68.18-34.45 69.76-35.77 71.33-37.08 73.53-37.08L73.53-37.08Q76.29-37.08 77.85-35.13 79.41-33.18 79.41-29.2L79.41-29.2 79.41 0 74.41 0 74.41-28.78Q74.41-31.03 73.59-31.9 72.77-32.76 71.4-32.76L71.4-32.76Q70.4-32.76 69.55-32.29 68.69-31.81 68.19-30.8 67.69-29.79 67.69-28.17L67.69-28.17 67.69 0ZM91.47 0L86.44 0 86.44-36.62 91.47-36.62 91.47 0ZM91.47-39.99L86.44-39.99 86.44-44.58 91.47-44.58 91.47-39.99ZM106.31 0.44L106.31 0.44Q103.72 0.44 102.11-0.45 100.5-1.34 99.63-2.99 98.77-4.64 98.45-6.95 98.13-9.25 98.13-12.11L98.13-12.11 98.13-25.07Q98.13-28.52 98.79-31.23 99.45-33.94 101.22-35.5 102.99-37.06 106.31-37.06L106.31-37.06Q108.8-37.06 110.39-36.17 111.97-35.28 112.85-33.65 113.73-32.03 114.06-29.85 114.39-27.66 114.39-25.07L114.39-25.07 114.39-12.11Q114.39-9.3 114.1-7.01 113.81-4.71 112.96-3.04 112.12-1.37 110.52-0.46 108.92 0.44 106.31 0.44ZM106.31-3.74L106.31-3.74Q107.63-3.74 108.28-4.61 108.92-5.49 109.14-7.07 109.36-8.64 109.36-10.72L109.36-10.72 109.36-26.07Q109.36-28.13 109.14-29.65 108.92-31.18 108.26-32.03 107.6-32.89 106.31-32.89L106.31-32.89Q104.94-32.89 104.26-32.03 103.58-31.18 103.37-29.65 103.16-28.13 103.16-26.07L103.16-26.07 103.16-10.72Q103.16-8.64 103.37-7.07 103.58-5.49 104.26-4.61 104.94-3.74 106.31-3.74ZM125.91 0L120.91 0 120.91-36.62 125.91-36.62 125.91-32.74Q126.4-34.45 128-35.77 129.6-37.08 131.82-37.08L131.82-37.08Q134.58-37.08 136.12-35.13 137.66-33.18 137.66-29.2L137.66-29.2 137.66 0 132.65 0 132.65-29.17Q132.65-31.13 131.77-32.01 130.89-32.89 129.53-32.89L129.53-32.89Q128.53-32.89 127.69-32.45 126.86-32.01 126.39-31.08 125.91-30.15 125.91-28.69L125.91-28.69 125.91 0ZM163.04 0L158.04 0 158.04-31.52 154.89-31.52 154.89-35.21 158.04-35.21 158.04-36.99Q158.04-40.16 159.39-41.88 160.75-43.6 163.7-43.6L163.7-43.6Q165.14-43.6 166.19-43.37 167.24-43.14 167.34-43.09L167.34-43.09 167.34-39.6Q166.36-39.75 165.61-39.75L165.61-39.75Q163.97-39.75 163.51-39.06 163.04-38.38 163.04-37.18L163.04-37.18 163.04-35.21 167.34-35.21 167.34-31.52 163.04-31.52 163.04 0ZM177.66 0L172.63 0 172.63-36.62 177.66-36.62 177.66 0ZM177.66-39.99L172.63-39.99 172.63-44.58 177.66-44.58 177.66-39.99ZM195.87 0L183.06 0 183.06-3.74 191.11-32.3 183.67-32.3 183.67-36.62 196.29-36.62 196.29-33.18 188.21-4.27 195.87-4.27 195.87 0ZM212.3 0L199.48 0 199.48-3.74 207.54-32.3 200.09-32.3 200.09-36.62 212.72-36.62 212.72-33.18 204.64-4.27 212.3-4.27 212.3 0Z" opacity="1" transform="matrix(1,0,0,1,0,0)" fill="#414141" class="wordmark-text-0" data-fill-palette-color="primary" id="text-0"></path></svg></g></svg></g></svg></g></svg></g></svg></g><defs></defs></svg><rect width="395.52" height="85.48529680365297" fill="none" stroke="none" visibility="hidden"></rect></g></svg></g></svg>